<?xml version="1.0" encoding="utf-8"?>
<!-- Generator: Adobe Illustrator 26.4.1, SVG Export Plug-In . SVG Version: 6.00 Build 0)  -->
<svg version="1.1" id="Layer_1" xmlns="http://www.w3.org/2000/svg" xmlns:xlink="http://www.w3.org/1999/xlink" x="0px" y="0px"
	 viewBox="0 0 150 150" style="enable-background:new 0 0 150 150;" xml:space="preserve">
<style type="text/css">
	.st0{fill:#ABB2BF;}
	.st1{fill:#FFFFFF;}
</style>
<path class="st0" d="M74.9,0C33.3,0,0.1,33.2,0,74.9c-0.1,41.4,33.4,75,74.7,75.1c41.7,0,75.2-33.5,75.3-75.3
	C150.1,33.5,116.4,0,74.9,0z M41.5,41.9c0.4,0,0.8,0,1.1,0c21.4-0.2,42.8-0.5,64.1-0.8c2.6,0,5,0.5,7.5,2c-1.3,1.3-2.6,2.5-3.8,3.7
	c-7.5,7.7-15,15.5-22.5,23.2c-2.2,2.3-4.4,4.7-6.7,6.9c-3.3,3.2-9,3.3-12.3,0.1C62.2,70.5,55.6,64,49,57.5
	c-4.2-4.2-8.5-8.3-12.7-12.5c-0.3-0.3-0.8-0.6-1.3-1C37.2,42.6,39.3,42,41.5,41.9z M29.5,96.5c0-0.5,0-1,0-1.5
	c-0.2-13.2-0.3-26.3-0.5-39.5c0-2.5,0.5-4.9,1.7-6.8c10,9.6,20.1,19.2,30.2,28.9c-9.8,8.5-19.5,16.8-29.2,25.2
	C30.3,100.9,29.7,98.8,29.5,96.5z M108.5,108.1c-1.3,0.1-2.6,0-3.9,0.1c-20.4,0.2-40.7,0.5-61.1,0.7c-2.2,0-4.4-0.3-6.4-1.3
	c-0.3-0.2-0.6-0.3-1-0.6c9.8-8.4,19.4-16.7,29.1-25c6.7,4.7,13.2,4.6,19.9-0.2c9.8,8.1,19.7,16.2,29.6,24.4
	C112.7,107.4,110.7,108,108.5,108.1z M119,101.8c-9.9-8.2-19.8-16.3-29.8-24.5c9.9-9.9,19.7-19.7,29.5-29.5c1.1,1.7,1.8,4,1.8,6.4
	c0.1,8.4,0.2,16.7,0.3,25.1c0.1,5.2,0.1,10.4,0.2,15.5C121,97.3,120.3,99.6,119,101.8z"/>
<path class="st1" d="M1122.9,1045.1c3.7,1.7,4.1,4,2.3,6.6c-0.5,0.7-2.7,1.1-3,0.8C1120.4,1050,1120.4,1047.5,1122.9,1045.1z"/>
</svg>
