<?xml version="1.0" encoding="utf-8"?>
<!-- Generator: Adobe Illustrator 26.4.1, SVG Export Plug-In . SVG Version: 6.00 Build 0)  -->
<svg version="1.1" id="Layer_1" xmlns="http://www.w3.org/2000/svg" xmlns:xlink="http://www.w3.org/1999/xlink" x="0px" y="0px"
	 viewBox="0 0 150 150" style="enable-background:new 0 0 150 150;" xml:space="preserve">
<style type="text/css">
	.st0{fill:#ABB2BF;}
</style>
<path class="st0" d="M150,75c0,37.4-27.4,68.4-63.2,74.1V98c0-0.7,0-0.7,0.7-0.7h16.1c0.8,0,0.8,0,0.9-0.8l3.1-20.5
	c0.1-0.5,0.1-0.5-0.5-0.6H87.5c-0.7,0-0.7,0-0.7-0.7V61.6c0-1.1,0.1-2.2,0.3-3.2c0.8-4.3,3.3-7.2,7.6-8.3c1.5-0.4,3.1-0.6,4.7-0.6
	c2.9,0,5.8,0,8.7,0c0.6,0,0.6,0,0.6-0.6V31.6c0-0.7,0-0.7-0.7-0.8c-1.6-0.2-3.3-0.5-4.9-0.7c-3.1-0.4-6.2-0.6-9.3-0.7
	c-3.9-0.1-7.7,0.1-11.4,1.1c-4.4,1.2-8.3,3.3-11.6,6.6c-3,3.1-5,6.8-6.2,10.9c-1,3.5-1.4,7.2-1.4,10.8c0,5.3,0,10.6,0,15.9
	c0,0.6,0,0.6-0.6,0.7H44.7c-0.7,0-0.7,0-0.7,0.7c0,6.8,0,13.7,0,20.5c0,0.6,0,0.6,0.6,0.7h17.5c0.2,0,0.4,0,0.6,0
	c0.3,0,0.4,0.1,0.4,0.4v51.4C27.4,143.4,0,112.4,0,75C0,33.8,33.2,0.4,74.3,0c0.2,0,0.5,0,0.7,0h0.4C116.7,0.2,150,33.7,150,75z"/>
</svg>
