<?xml version="1.0" encoding="utf-8"?>
<!-- Generator: Adobe Illustrator 26.4.1, SVG Export Plug-In . SVG Version: 6.00 Build 0)  -->
<svg version="1.1" id="Layer_1" xmlns="http://www.w3.org/2000/svg" xmlns:xlink="http://www.w3.org/1999/xlink" x="0px" y="0px"
	 viewBox="0 0 150 150" style="enable-background:new 0 0 150 150;" xml:space="preserve">
<style type="text/css">
	.st0{fill:#ABB2BF;}
</style>
<path class="st0" d="M0,74.9C0.1,33.2,33.3,0,74.9,0c41.5,0,75.2,33.6,75.1,74.7c-0.1,41.8-33.6,75.3-75.3,75.3
	C33.4,150-0.1,116.3,0,74.9z M81,62.9c0-0.8-0.1-2.1,0-3.5c0.3-2.4-0.5-3.3-3-3.2c-4.1,0.2-8.2,0.2-12.3,0c-2.4-0.1-3.1,0.8-3,3.1
	c0.1,18,0.1,36.1,0,54.1c0,2.4,0.9,3.1,3.1,3c4.4-0.1,8.8-0.1,13.2,0c2.2,0,2.9-0.7,2.9-3c-0.1-9.1-0.1-18.1,0-27.2
	c0-2.8,0.3-5.6,1-8.3c1.2-4.5,5.3-6.7,11.1-6.3c3.9,0.3,6.6,2.9,7.4,7.3c0.3,2,0.5,4,0.5,6c0.1,9.6,0.1,19.2,0,28.8
	c0,1.9,0.6,2.6,2.5,2.6c4.6-0.1,9.3-0.1,13.9,0c2,0,2.6-0.8,2.6-2.8c-0.1-10.3,0-20.7-0.1-31c0-2.9-0.1-5.8-0.5-8.6
	c-0.7-5.1-2.2-9.8-5.8-13.7c-5.4-5.9-21.6-8.6-30.2-0.1C83.3,61.3,82,62.1,81,62.9z M32.7,86.4c0,9.1,0,18.3,0,27.4
	c0,2,0.6,2.7,2.6,2.7c4.6-0.1,9.1,0,13.7,0c1.9,0,2.7-0.5,2.7-2.6c-0.1-18.3-0.1-36.7,0-55c0-1.9-0.7-2.5-2.5-2.5
	c-4.5,0.1-9,0.1-13.4,0c-2.3-0.1-3.1,0.6-3,2.9C32.8,68.3,32.7,77.3,32.7,86.4z M53.1,37.9c0-6.1-4.7-10.9-10.6-11
	c-6.2,0-11.1,4.7-11.1,10.8c0,5.9,4.9,11,10.7,11C48,48.8,53,43.9,53.1,37.9z"/>
</svg>
